<?xml version="1.0" encoding="UTF-8" standalone="no"?>
<svg
   xmlns:dc="http://purl.org/dc/elements/1.1/"
   xmlns:cc="http://creativecommons.org/ns#"
   xmlns:rdf="http://www.w3.org/1999/02/22-rdf-syntax-ns#"
   xmlns:svg="http://www.w3.org/2000/svg"
   xmlns="http://www.w3.org/2000/svg"
   xmlns:sodipodi="http://sodipodi.sourceforge.net/DTD/sodipodi-0.dtd"
   xmlns:inkscape="http://www.inkscape.org/namespaces/inkscape"
   width="210mm"
   height="297mm"
   viewBox="0 0 210 297"
   version="1.1"
   id="svg8"
   inkscape:version="1.0.1 (3bc2e813f5, 2020-09-07)"
   sodipodi:docname="Wilson.svg">
  <defs
     id="defs2" />
  <sodipodi:namedview
     id="base"
     pagecolor="#ffffff"
     bordercolor="#666666"
     borderopacity="1.0"
     inkscape:pageopacity="0.0"
     inkscape:pageshadow="2"
     inkscape:zoom="1.08"
     inkscape:cx="400"
     inkscape:cy="560"
     inkscape:document-units="mm"
     inkscape:current-layer="layer1"
     inkscape:document-rotation="0"
     showgrid="false"
     inkscape:window-width="1920"
     inkscape:window-height="1017"
     inkscape:window-x="-8"
     inkscape:window-y="-8"
     inkscape:window-maximized="1" />
  <metadata
     id="metadata5">
    <rdf:RDF>
      <cc:Work
         rdf:about="">
        <dc:format>image/svg+xml</dc:format>
        <dc:type
           rdf:resource="http://purl.org/dc/dcmitype/StillImage" />
        <dc:title></dc:title>
      </cc:Work>
    </rdf:RDF>
  </metadata>
  <g
     inkscape:label="Layer 1"
     inkscape:groupmode="layer"
     id="layer1">
    <g
       id="g900"
       transform="matrix(1.544204,0,0,1.544204,-46.394952,-52.15445)"
       inkscape:export-xdpi="90"
       inkscape:export-ydpi="90">
      <circle
         style="fill:#ffffff;stroke:#000000;stroke-width:0.287796;stroke-linejoin:round;paint-order:fill markers stroke"
         id="path1791-2"
         cx="102.80952"
         cy="113.39286"
         r="17.41275" />
      <path
         style="fill:#ff0000;stroke-width:0.0300279"
         d="m 101.54814,127.89397 c -0.17457,-0.0212 -0.42456,-0.0617 -0.55552,-0.0901 -0.14238,-0.0308 -0.47356,-0.0612 -0.82367,-0.0756 -0.760476,-0.0312 -0.90487,-0.0717 -1.546437,-0.43324 -0.132119,-0.0745 -0.344716,-0.16915 -0.472433,-0.21042 -0.233163,-0.0753 -0.466678,-0.18307 -0.578499,-0.26688 -0.05975,-0.0448 -0.05967,-0.0454 0.0073,-0.13631 0.08975,-0.12138 0.08584,-0.15409 -0.02983,-0.24986 -0.08187,-0.0678 -0.09235,-0.0899 -0.06415,-0.13512 0.03546,-0.0568 0.08164,-0.0597 0.36159,-0.0225 0.106612,0.0142 0.228688,0.004 0.390364,-0.0327 0.129388,-0.0293 0.320759,-0.0529 0.425277,-0.0523 0.168669,8e-4 0.193498,-0.007 0.220969,-0.067 0.02258,-0.0496 0.01997,-0.0908 -0.0099,-0.15267 -0.03415,-0.071 -0.128694,-0.12265 -0.581303,-0.31783 -0.297275,-0.1282 -0.635095,-0.2699 -0.750698,-0.31489 -0.122908,-0.0478 -0.266316,-0.13269 -0.34532,-0.20432 -0.07654,-0.0694 -0.239285,-0.16671 -0.375349,-0.22445 -0.296582,-0.12585 -0.407539,-0.20555 -0.52611,-0.37789 -0.109351,-0.15893 -0.202269,-0.17615 -0.297478,-0.0551 -0.07768,0.0988 -0.07695,0.1373 0.0096,0.49968 0.07565,0.31668 0.06309,0.36716 -0.06733,0.26998 -0.168385,-0.12551 -0.20055,-0.2288 -0.190899,-0.6129 0.0082,-0.32787 0.0049,-0.35464 -0.06008,-0.4296 -0.05527,-0.0642 -0.11187,-0.0866 -0.286539,-0.11359 l -0.217709,-0.0337 v -0.1111 c 0,-0.0611 -0.01687,-0.12511 -0.0375,-0.14222 -0.05347,-0.0444 -0.398369,-0.24073 -0.593058,-0.3377 -0.228175,-0.11366 -0.374045,-0.27148 -0.511951,-0.55392 -0.09723,-0.19914 -0.124782,-0.29818 -0.159572,-0.57367 -0.02364,-0.1874 -0.06986,-0.39583 -0.105651,-0.47676 -0.08637,-0.19523 -0.08005,-0.34038 0.02649,-0.60635 0.126502,-0.31591 0.119793,-0.39542 -0.05779,-0.68497 -0.08135,-0.13262 -0.185535,-0.34923 -0.231598,-0.48135 -0.07589,-0.21755 -0.08369,-0.27847 -0.08311,-0.6456 5.7e-4,-0.34489 0.01484,-0.4681 0.09562,-0.82576 0.118163,-0.52311 0.208856,-1.03188 0.246467,-1.38265 0.0159,-0.14789 0.04964,-0.43105 0.07507,-0.62923 0.02543,-0.19818 0.05152,-0.44816 0.05796,-0.55552 0.03611,-0.60198 0.123185,-1.0554 0.27,-1.40577 0.12294,-0.29339 0.165939,-0.48094 0.243793,-1.06339 l 0.07548,-0.56488 -0.06366,-0.2096 c -0.07336,-0.24145 -0.05926,-0.31842 0.09338,-0.51117 0.142952,-0.18049 0.156988,-0.26428 0.116141,-0.69299 l -0.03611,-0.37902 0.132126,-0.26531 0.132127,-0.2653 0.01003,-0.5235 c 0.0057,-0.28793 0.0016,-0.5697 -0.0092,-0.62615 -0.0106,-0.0565 -0.06864,-0.15729 -0.128964,-0.22408 l -0.109702,-0.12143 -0.009,-0.57492 c -0.0163,-1.04771 -0.01476,-1.03388 -0.137262,-1.21338 -0.125223,-0.18346 -0.127318,-0.19599 -0.171808,-1.0281 -0.06529,-1.22084 -0.131948,-1.68592 -0.318509,-2.22215 -0.100834,-0.28983 -0.109328,-0.34018 -0.105431,-0.62541 l 0.0041,-0.3102 -0.180343,-0.18781 c -0.214986,-0.22388 -0.231289,-0.31584 -0.09431,-0.53183 0.09642,-0.15204 0.241495,-0.23643 0.406455,-0.23643 0.07043,0 0.13048,-0.0224 0.172452,-0.0644 0.06081,-0.0608 0.06325,-0.083 0.04451,-0.39787 -0.01092,-0.18341 -0.03155,-0.38318 -0.04573,-0.44391 -0.0441,-0.18861 0.01687,-0.25736 0.274214,-0.30931 0.0538,-0.0109 0.08669,-0.0397 0.0954,-0.0837 0.0073,-0.0369 0.02869,-0.15494 0.04744,-0.26229 0.08396,-0.4791 0.205547,-0.804266 0.349159,-0.933736 0.152912,-0.13787 0.530846,-0.38172 0.747071,-0.48205 0.173935,-0.0807 0.247591,-0.0978 0.426988,-0.0991 0.185225,-0.001 0.22652,0.008 0.28367,0.0653 0.0745,0.0744 0.09151,0.21551 0.146017,1.209376 0.01589,0.28902 0.03684,0.59506 0.04671,0.68008 0.0099,0.085 0.0041,0.17997 -0.01231,0.21097 -0.01956,0.0365 -0.01997,0.0746 -8.15e-4,0.10816 0.02413,0.0432 0.07491,0.0518 0.305238,0.0517 0.269365,-2e-5 0.281103,-0.003 0.469996,-0.11918 0.115375,-0.071 0.248977,-0.12664 0.330312,-0.13764 0.198977,-0.0269 0.241674,-0.0426 0.241674,-0.089 0,-0.12593 0.07532,-0.3583 0.141713,-0.43721 0.04198,-0.0499 0.142234,-0.12409 0.222811,-0.16492 0.146604,-0.0743 0.27657,-0.22119 0.388921,-0.43959 0.08037,-0.156306 0.07336,-0.194776 -0.06285,-0.342486 -0.06603,-0.0717 -0.120112,-0.14258 -0.120112,-0.15759 0,-0.0659 0.257643,-0.40386 0.432882,-0.56779 0.182046,-0.17029 0.512335,-0.36729 0.615385,-0.36705 0.02625,6e-5 0.092,0.0271 0.146074,0.0601 0.221923,0.13531 0.367114,0.0252 0.367114,-0.27838 0,-0.16644 0.008,-0.18748 0.1037,-0.27788 0.13716,-0.12936 0.34036,-0.17961 0.54322,-0.13434 0.21948,0.049 0.28394,0.1007 0.28394,0.22787 0,0.0802 0.0293,0.14128 0.1182,0.24703 0.21442,0.25492 0.22583,0.35948 0.0845,0.7749 l -0.0976,0.28682 0.0704,0.057 c 0.0387,0.0313 0.12291,0.0711 0.18713,0.0884 0.1353,0.0364 0.16261,0.078 0.1893,0.287906 0.0181,0.14255 0.0797,0.33877 0.27212,0.86753 0.0421,0.11561 0.0765,0.21323 0.0766,0.21694 5.7e-4,0.0278 0.19565,0.0984 0.27186,0.0984 0.18244,0 0.49265,-0.21137 0.58837,-0.40089 0.0759,-0.15032 0.16377,-0.2297 0.2542,-0.2297 0.1041,0 0.59881,0.32603 0.69084,0.45529 0.0453,0.0637 0.0721,0.15758 0.085,0.29886 0.0253,0.27552 0.0614,0.30594 0.17068,0.14388 0.0513,-0.076 0.12269,-0.13942 0.17626,-0.15657 0.1362,-0.0436 0.16511,-0.078 0.16559,-0.19713 6.9e-4,-0.17529 0.0803,-0.46503 0.22417,-0.81633 l 0.13418,-0.327606 -0.006,-0.57851 c -0.005,-0.47701 0.003,-0.6122 0.0478,-0.77051 0.0575,-0.2055 0.0687,-0.35912 0.0369,-0.50378 -0.0144,-0.0656 -0.004,-0.10933 0.0376,-0.16094 l 0.0574,-0.0708 0.33827,0.0541 c 0.33687,0.0538 0.58172,0.11974 0.65312,0.17576 0.0511,0.0401 0.0457,0.23395 -0.008,0.3056 -0.0708,0.0936 -0.0536,0.2066 0.046,0.30204 0.11985,0.11482 0.11363,0.17844 -0.03,0.30741 -0.17334,0.15561 -0.16369,0.22804 0.0601,0.45111 0.21586,0.21519 0.22772,0.28447 0.0742,0.43358 l -0.10597,0.102916 0.0435,0.19327 c 0.0239,0.1063 0.0586,0.3122 0.0773,0.45754 0.0186,0.14534 0.0479,0.30074 0.0652,0.34532 0.0173,0.0446 0.0415,0.26621 0.0539,0.4925 0.0298,0.54632 0.0808,0.60449 0.34957,0.39931 0.12112,-0.0924 0.15882,-0.10509 0.31341,-0.10509 0.2189,0 0.28832,0.0534 0.25034,0.19259 -0.0327,0.1199 -0.0163,0.82102 0.0209,0.89044 0.0157,0.0293 0.0792,0.0693 0.14132,0.089 0.20189,0.064 0.35145,0.17022 0.49943,0.35472 0.20701,0.25809 0.33762,0.3354 0.64284,0.38047 0.3087,0.0456 0.3723,0.089 0.54194,0.37002 0.0934,0.15466 0.16622,0.23661 0.25833,0.29059 0.19566,0.11466 0.23057,0.168 0.24889,0.38022 0.009,0.10444 0.0285,0.21326 0.0431,0.24181 0.0147,0.0285 0.10088,0.0734 0.19151,0.0998 0.27623,0.0803 0.33637,0.15145 0.44586,0.52747 0.10547,0.36224 0.37443,0.57343 0.80465,0.63181 0.12089,0.0164 0.26435,0.0363 0.31881,0.0442 0.17216,0.0249 0.2594,0.23876 0.18475,0.45287 -0.0358,0.10276 -0.13529,0.15876 -0.28197,0.15876 -0.10317,0 -0.13692,0.0382 -0.13692,0.15481 0,0.0983 0.13605,0.47331 0.28536,0.78647 0.13964,0.29287 0.14995,0.36459 0.0575,0.40006 -0.0345,0.0132 -0.0966,-0.0349 -0.21111,-0.1634 -0.0892,-0.10018 -0.22729,-0.22216 -0.30677,-0.27107 -0.0795,-0.0489 -0.20939,-0.16486 -0.28868,-0.25767 -0.15002,-0.17561 -0.24376,-0.212 -0.31744,-0.12323 -0.0208,0.025 -0.0554,0.16364 -0.0768,0.308 -0.0549,0.3697 -0.1663,0.69724 -0.31418,0.92422 -0.13802,0.21183 -0.13824,0.21422 -0.0551,0.58999 0.0308,0.13942 0.0306,0.18473 -0.002,0.24441 -0.0525,0.0981 -0.16262,0.14612 -0.25472,0.1111 -0.13733,-0.0523 -0.57522,-0.38712 -0.97901,-0.74878 -0.22295,-0.19969 -0.52392,-0.44519 -0.66882,-0.54555 -0.1449,-0.10036 -0.28182,-0.21192 -0.30427,-0.24791 -0.0224,-0.036 -0.0483,-0.14417 -0.0574,-0.24042 -0.021,-0.22193 -0.0825,-0.32047 -0.19987,-0.32047 -0.0756,0 -0.10639,0.0285 -0.22021,0.20448 -0.13044,0.20164 -0.35888,0.42318 -0.93663,0.90835 -0.36281,0.30468 -0.40116,0.32851 -0.52849,0.32851 -0.13349,0 -0.16632,-0.0363 -0.22099,-0.24416 -0.0233,-0.0887 -0.10246,-0.28959 -0.17586,-0.44648 -0.12782,-0.27322 -0.26076,-0.68621 -0.26076,-0.81005 0,-0.0323 0.0386,-0.10305 0.0857,-0.15731 0.12331,-0.14196 0.14214,-0.18992 0.18497,-0.47117 0.0362,-0.23768 0.0351,-0.25486 -0.0185,-0.29421 -0.0313,-0.023 -0.084,-0.0342 -0.11701,-0.0249 -0.31137,0.0874 -0.4354,0.0368 -0.4354,-0.17789 0,-0.15756 0.13231,-0.42982 0.23065,-0.47463 0.0629,-0.0287 0.0828,-0.0223 0.14746,0.0474 0.0866,0.0933 0.11072,0.0979 0.17526,0.0334 0.0752,-0.0752 0.0556,-0.1521 -0.0557,-0.21779 -0.14503,-0.0856 -0.19062,-0.16983 -0.23935,-0.4424 -0.0536,-0.29974 -0.10961,-0.46439 -0.1711,-0.50274 -0.1285,-0.0801 -0.38078,0.10961 -0.53805,0.40468 -0.13511,0.25349 -0.15584,0.53014 -0.0593,0.79042 0.16976,0.45735 0.17257,0.75502 0.0108,1.13945 -0.15886,0.37748 -0.17598,0.46555 -0.12073,0.6211 0.0737,0.20746 0.067,0.23631 -0.0546,0.23631 -0.0641,0 -0.1587,-0.0346 -0.2461,-0.0901 -0.0781,-0.0496 -0.16408,-0.0901 -0.19099,-0.0901 -0.0777,0 -0.17953,0.12982 -0.17953,0.22877 0,0.19809 0.36224,0.61472 0.68322,0.78579 0.0958,0.051 0.29221,0.12705 0.43647,0.16886 0.42678,0.12367 0.45645,0.15448 0.4241,0.44038 -0.0194,0.17161 -0.016,0.18592 0.0661,0.27238 0.15448,0.16271 0.54535,0.4397 0.82243,0.58281 0.43399,0.22414 0.47678,0.34438 0.30232,0.8495 -0.10644,0.3082 -0.11561,0.53913 -0.0325,0.82005 0.035,0.11835 0.035,0.16602 3.5e-4,0.31054 -0.0696,0.29011 -0.0647,0.29818 0.84806,1.39859 0.38818,0.46799 0.67683,0.68599 1.04459,0.78894 0.23201,0.065 0.89655,0.0968 1.06069,0.0509 0.0822,-0.023 0.23719,-0.1233 0.42704,-0.2763 0.68458,-0.5517 0.72615,-0.60296 0.97027,-1.1963 0.0849,-0.20644 0.21502,-0.47975 0.28909,-0.60737 0.0741,-0.12761 0.13468,-0.26298 0.13468,-0.30082 0,-0.0378 -0.0324,-0.11658 -0.0721,-0.17498 -0.10706,-0.15755 -0.16806,-0.39939 -0.16806,-0.66628 0,-0.41811 -0.0583,-0.79866 -0.15729,-1.02694 -0.0822,-0.18942 -0.0891,-0.2302 -0.0745,-0.4354 0.0241,-0.33774 0.0683,-0.40061 0.22725,-0.32314 0.0774,0.0377 0.0793,0.0455 0.07,0.27145 -0.0172,0.41728 0.0958,0.61691 0.54083,0.95572 0.22517,0.1714 0.35421,0.32077 0.35447,0.4103 6e-5,0.0216 -0.0672,0.11044 -0.14932,0.19734 -0.18219,0.19264 -0.24093,0.32527 -0.24093,0.54405 0,0.20309 0.0448,0.3162 0.22597,0.57003 0.15336,0.21492 0.36906,0.72075 0.46473,1.0898 0.034,0.13107 0.0734,0.37228 0.0876,0.53603 0.0315,0.36242 0.069,0.4569 0.30686,0.77151 0.10211,0.13509 0.22593,0.33346 0.27515,0.4408 0.11251,0.24539 0.31904,1.05779 0.33971,1.33624 0.0183,0.24628 -8.1e-4,0.31953 -0.31717,1.20113 -0.11843,0.3303 -0.24184,0.70865 -0.27421,0.84078 -0.0992,0.4046 -0.16363,1.5799 -0.10589,1.9302 l 0.0262,0.15855 -0.18416,0.17688 c -0.10128,0.0973 -0.18613,0.20159 -0.18853,0.2318 -0.002,0.0302 -0.006,0.1698 -0.009,0.31018 -0.005,0.27218 -0.0111,0.2908 -0.21096,0.60056 -0.0693,0.10734 -0.19128,0.35058 -0.2711,0.5405 -0.33677,0.80132 -0.91206,1.8859 -1.35386,2.55237 -0.38885,0.58662 -0.53006,0.76283 -0.74225,0.92627 -0.26361,0.20302 -0.92194,0.58917 -1.41757,0.83148 -0.7646,0.37379 -1.35356,0.54106 -2.22207,0.6311 -0.51013,0.0529 -0.61915,0.069 -1.18687,0.17471 -0.57671,0.10746 -1.7442,0.22964 -2.15743,0.22578 -0.19202,-0.002 -0.49196,-0.0205 -0.66653,-0.0417 z m 2.53946,-4.73817 c 0.0921,-0.0212 0.4518,-0.0349 0.93086,-0.0355 0.66422,-7.9e-4 0.81882,-0.01 1.03597,-0.0593 0.33664,-0.0771 0.83744,-0.33261 1.46568,-0.7477 0.44248,-0.29236 0.48886,-0.33111 0.48044,-0.40128 -0.0151,-0.12585 -0.0915,-0.15214 -0.25696,-0.0885 -0.0785,0.0302 -0.18912,0.0725 -0.24582,0.0939 -0.17576,0.0665 -0.36234,-0.0444 -0.36234,-0.21539 0,-0.0692 0.10727,-0.12148 0.18762,-0.0914 0.0207,0.008 0.12946,0.003 0.24174,-0.0108 0.2518,-0.0307 0.51387,-0.16357 0.68174,-0.34569 0.12856,-0.13947 0.15229,-0.24519 0.0729,-0.32462 -0.0632,-0.0632 -0.0845,-0.0602 -0.22198,0.0307 -0.0647,0.0429 -0.13202,0.0691 -0.14949,0.0583 -0.0679,-0.042 -0.033,-0.27223 0.0732,-0.48324 0.0578,-0.11466 0.10505,-0.22598 0.1051,-0.24738 1.1e-4,-0.0679 -0.14394,-0.18631 -0.22667,-0.18631 -0.0565,0 -0.13686,0.055 -0.27913,0.19086 -0.10987,0.10498 -0.32814,0.2759 -0.48503,0.37984 -0.1569,0.10394 -0.35714,0.25617 -0.445,0.3383 -0.15218,0.14227 -0.16609,0.1486 -0.29445,0.13414 -0.25643,-0.0289 -2.11927,0.0323 -2.48856,0.0817 -0.55754,0.0747 -1.39656,0.25092 -1.54644,0.3249 -0.11272,0.0557 -0.13666,0.0825 -0.14438,0.1623 -0.007,0.0687 0.007,0.10397 0.0464,0.12539 0.0829,0.0444 1.98312,-0.0114 2.41014,-0.0707 0.18993,-0.0264 0.49932,-0.0879 0.68755,-0.13666 0.18822,-0.0487 0.36726,-0.0887 0.39787,-0.0887 0.083,0 0.17575,0.10852 0.17575,0.20554 0,0.18268 -0.23848,0.25625 -0.55984,0.17272 -0.24663,-0.0641 -0.41584,-0.0604 -0.62907,0.0137 -0.34193,0.11885 -0.5679,0.155 -1.09733,0.17555 l -0.52961,0.0206 -0.22528,0.11134 c -0.25908,0.12804 -0.28491,0.1313 -0.4358,0.0549 -0.17234,-0.0872 -0.39895,-0.12381 -0.76599,-0.12381 -0.18498,-1e-5 -0.44224,-0.0203 -0.5717,-0.0451 -0.12944,-0.0248 -0.33349,-0.0451 -0.45343,-0.0451 -0.11994,0 -0.41265,-0.0337 -0.65047,-0.0748 -0.45073,-0.078 -0.99104,-0.0982 -1.256484,-0.0469 -0.16196,0.0312 -0.244608,0.003 -0.300152,-0.10009 -0.05111,-0.0955 -0.156907,-0.10349 -0.242016,-0.0183 -0.08206,0.0821 -0.07589,0.21682 0.01492,0.32472 0.09586,0.11393 0.197371,0.13841 0.379979,0.0916 0.207471,-0.0532 0.292792,-0.0156 0.385816,0.16966 0.06562,0.13076 0.104143,0.16511 0.306413,0.27348 0.127235,0.0681 0.294715,0.17971 0.372178,0.2479 0.207136,0.18233 0.302899,0.20212 0.773516,0.15984 0.40576,-0.0364 0.59332,-0.0258 1.17534,0.0665 0.32835,0.0521 2.21474,0.0359 2.46229,-0.0212 z m 0.27513,-5.56387 c 0.18746,-0.1536 0.22023,-0.23431 0.22093,-0.54412 3.4e-4,-0.14533 0.0145,-0.35883 0.0316,-0.47443 0.0872,-0.5925 0.0267,-0.93389 -0.2119,-1.19496 -0.21059,-0.23042 -0.38476,-0.30206 -0.7511,-0.30894 -0.15689,-0.003 -0.35184,-0.0157 -0.43323,-0.0281 -0.1321,-0.0204 -0.15382,-0.0156 -0.20268,0.0447 -0.0448,0.0554 -0.0547,0.12208 -0.0547,0.36808 v 0.30048 l -0.12762,0.12409 c -0.20747,0.20172 -0.23236,0.25209 -0.232,0.4694 3.4e-4,0.23955 0.0647,0.55513 0.1447,0.70999 0.0792,0.15333 0.29179,0.35643 0.43582,0.41638 0.0793,0.033 0.20577,0.0479 0.40122,0.0474 0.2885,-7.9e-4 0.40402,0.0302 0.48726,0.13045 0.0615,0.0741 0.14998,0.0558 0.29179,-0.0605 z m -3.15558,-3.00598 c 0.0354,-0.0526 0.0807,-0.17912 0.10076,-0.28111 0.08,-0.40697 0.11094,-0.41869 0.50278,-0.19068 0.0922,0.0536 0.0973,0.0536 0.15566,7.9e-4 0.0571,-0.0516 0.0598,-0.0846 0.0499,-0.59978 -0.006,-0.29984 -0.0117,-0.55585 -0.013,-0.56893 -0.002,-0.013 -0.0894,-0.0628 -0.19546,-0.11033 -0.1061,-0.0476 -0.20745,-0.11371 -0.22521,-0.14691 -0.0457,-0.0853 -0.0401,-0.21558 0.0157,-0.36831 0.0667,-0.18241 0.0937,-1.32549 0.0364,-1.53979 -0.053,-0.19803 -0.15363,-0.27503 -0.30497,-0.23324 -0.26847,0.0741 -0.78484,0.50563 -0.9136,0.76345 -0.0373,0.0747 -0.12231,0.33437 -0.1888,0.57685 -0.15619,0.56964 -0.22213,0.74221 -0.321644,0.84173 -0.07491,0.0749 -0.09655,0.0803 -0.280222,0.0699 -0.156076,-0.009 -0.243695,-0.0345 -0.405795,-0.11902 -0.24376,-0.12707 -0.323775,-0.22979 -0.366089,-0.47002 -0.01696,-0.0961 -0.07923,-0.29872 -0.138411,-0.45021 -0.05918,-0.15148 -0.107616,-0.31066 -0.107616,-0.35373 0,-0.055 0.05576,-0.13678 0.187671,-0.27514 0.295449,-0.30986 0.390217,-0.36851 0.595364,-0.36851 0.153093,0 0.213405,-0.0208 0.513476,-0.17668 0.187006,-0.0972 0.415176,-0.19815 0.507056,-0.22441 0.32553,-0.093 0.47855,-0.26597 0.47855,-0.54084 0,-0.21658 -0.0506,-0.35065 -0.21292,-0.56386 -0.16618,-0.21832 -0.18361,-0.32118 -0.0833,-0.49127 0.12256,-0.20773 0.0705,-0.42377 -0.15017,-0.62313 -0.15155,-0.13692 -0.27747,-0.17532 -0.636277,-0.19401 l -0.286889,-0.0149 -0.271981,0.1366 c -0.350594,0.17608 -0.802256,0.43546 -1.10606,0.63521 -0.132119,0.0869 -0.29518,0.18569 -0.36234,0.21962 -0.157975,0.0798 -0.183383,0.1131 -0.222966,0.2925 -0.0181,0.0819 -0.108357,0.2972 -0.200648,0.47845 -0.28971,0.56897 -0.285406,0.54763 -0.296924,1.47213 l -0.01011,0.81076 0.135624,0.27269 c 0.129404,0.26018 0.136781,0.28916 0.160836,0.63199 0.03847,0.54815 0.109955,0.75369 0.331853,0.95416 0.128809,0.11638 0.234305,0.16937 0.930103,0.46716 0.574383,0.24583 0.736955,0.28205 1.246159,0.2776 0.29667,-0.002 0.50876,0.0128 0.72067,0.0523 0.16516,0.0308 0.36063,0.0539 0.43441,0.0513 0.1148,-0.004 0.1434,-0.0185 0.1984,-0.10041 z m 3.52591,-0.6998 c 0.0338,-0.063 -0.004,-0.16451 -0.12524,-0.33694 -0.0315,-0.0448 -0.0976,-0.17937 -0.14699,-0.29906 -0.097,-0.2352 -0.12352,-0.26456 -0.2381,-0.26348 -0.1076,8.1e-4 -0.55119,0.1355 -0.56291,0.17066 -0.014,0.0421 0.44708,0.46869 0.69428,0.64228 0.22431,0.15753 0.32826,0.18127 0.37896,0.0865 z m -1.84793,-4.63489 c 0.0557,-0.0407 0.11813,-0.34471 0.0873,-0.42509 -0.009,-0.0223 -0.1123,-0.053 -0.24557,-0.0725 -0.12689,-0.0187 -0.31855,-0.0615 -0.42589,-0.0952 -0.10735,-0.0337 -0.31186,-0.0691 -0.45447,-0.0787 -0.25541,-0.017 -0.26006,-0.0161 -0.31124,0.062 -0.0469,0.0717 -0.0475,0.086 -0.007,0.1489 0.0528,0.0806 0.42612,0.2678 0.71085,0.35642 0.10798,0.0336 0.25038,0.0788 0.31645,0.10044 0.15849,0.0518 0.26149,0.0531 0.32895,0.004 z m -0.41558,-0.98708 c 0.12032,-0.0924 0.12953,-0.11105 0.12661,-0.25642 -0.002,-0.0918 0.0194,-0.16011 0.0749,-0.24046 0.11594,-0.16788 0.17036,-0.31948 0.17036,-0.47456 0,-0.18821 -0.0721,-0.32686 -0.23464,-0.45094 -0.23225,-0.17734 -0.23963,-0.20234 -0.16836,-0.57008 0.0161,-0.0831 -0.002,-0.11326 -0.19227,-0.30779 -0.11557,-0.11859 -0.22995,-0.21562 -0.25417,-0.21562 -0.0786,0 -0.11848,0.0831 -0.10431,0.21713 0.0236,0.22243 -0.0329,0.73019 -0.10178,0.91508 -0.0756,0.20292 -0.11798,0.27479 -0.27233,0.4612 -0.16433,0.19848 -0.15237,0.29231 0.0455,0.35682 0.1486,0.0484 0.34393,0.19941 0.56809,0.43904 0.0994,0.10622 0.19757,0.19313 0.21822,0.19313 0.0206,0 0.0765,-0.0299 0.12418,-0.0665 z m 4.73472,-1.82398 c 0.0553,-0.18752 0.0554,-0.19942 0.003,-0.371 -0.0513,-0.16951 -0.0513,-0.19385 -0.002,-0.55686 0.0528,-0.38365 0.0435,-0.51822 -0.043,-0.62257 -0.0192,-0.0231 -0.0273,-0.0792 -0.0182,-0.1247 0.023,-0.11433 -0.0737,-0.30478 -0.256,-0.50423 -0.15955,-0.17457 -0.24925,-0.20484 -0.33053,-0.11152 -0.0252,0.0289 -0.1163,0.19097 -0.20252,0.36016 -0.16832,0.33028 -0.3489,0.52774 -0.52383,0.57282 -0.12226,0.0316 -0.13057,0.10566 -0.0335,0.29894 0.0425,0.0846 0.0991,0.26606 0.12584,0.40313 0.0267,0.13706 0.0582,0.26012 0.0699,0.27346 0.0118,0.0134 0.10106,0.0449 0.19837,0.0702 0.23062,0.0598 0.46908,0.18816 0.68982,0.37122 0.0978,0.0811 0.1973,0.14457 0.22118,0.14107 0.0254,-0.004 0.0671,-0.0866 0.10048,-0.20009 z m -4.93725,-1.06912 c 0.11943,-0.15183 0.13502,-0.26335 0.068,-0.48634 -0.0335,-0.11133 -0.0692,-0.32368 -0.0794,-0.47188 -0.0102,-0.1482 -0.0329,-0.28671 -0.0503,-0.30779 -0.0425,-0.0512 -0.21204,-0.0486 -0.3409,0.006 -0.1498,0.0626 -0.16957,0.14388 -0.15855,0.65207 0.009,0.42201 0.0127,0.44419 0.0846,0.52197 0.15813,0.17109 0.37862,0.21122 0.47656,0.0867 z m -4.381242,-2.92387 c 0.01712,-0.0319 0.03106,-0.14379 0.03106,-0.24856 0,-0.23106 0.05258,-0.32394 0.183358,-0.32394 0.200297,0 0.357147,-0.14749 0.357147,-0.33582 0,-0.13272 -0.07907,-0.22047 -0.238608,-0.26479 -0.200917,-0.0558 -0.241837,-0.0429 -0.241837,0.0765 0,0.10726 -0.105496,0.25387 -0.182674,0.25387 -0.0194,0 -0.08639,0.0439 -0.148886,0.0976 -0.06252,0.0537 -0.14521,0.12013 -0.183807,0.14768 -0.08951,0.0639 -0.05372,0.1335 0.112963,0.21985 0.118685,0.0615 0.125687,0.0758 0.180652,0.36816 0.01557,0.0829 0.08849,0.0882 0.130611,0.01 z m 7.570062,-3.185986 c 0.0874,-0.0468 0.0761,-0.19066 -0.021,-0.26702 -0.0994,-0.0782 -0.32622,-0.0852 -0.40648,-0.0125 -0.0624,0.0564 -0.0736,0.21991 -0.0189,0.27461 0.0442,0.0442 0.36645,0.0477 0.44639,0.005 z M 95.203255,124.99394 c -0.04361,-0.0343 -0.12228,-0.1255 -0.174873,-0.20269 -0.153516,-0.22529 -0.514437,-0.67192 -0.63441,-0.78506 -0.11496,-0.10841 -0.135697,-0.17388 -0.07442,-0.23512 0.05209,-0.0521 0.09219,-0.0456 0.285113,0.0457 0.237492,0.11245 0.382531,0.26501 0.44043,0.46327 0.0366,0.12535 0.09665,0.21524 0.273261,0.40914 0.12448,0.13667 0.226333,0.25896 0.226333,0.27175 0,0.10509 -0.222412,0.12659 -0.341399,0.033 z m 12.637835,-13.34641 c -0.19818,-0.108 -0.40595,-0.24475 -0.46169,-0.30391 -0.0987,-0.10469 -0.10086,-0.1125 -0.0823,-0.29356 0.0172,-0.16795 0.0125,-0.19203 -0.0487,-0.24797 -0.0373,-0.0341 -0.12042,-0.0804 -0.1847,-0.10308 -0.17941,-0.0632 -0.37132,-0.24794 -0.41123,-0.39597 -0.0368,-0.1365 -0.0179,-0.393 0.0379,-0.51557 0.0439,-0.0964 0.1174,-0.11496 0.3993,-0.10073 0.20982,0.0106 0.23151,0.0183 0.33772,0.11979 0.1076,0.10283 0.12655,0.1093 0.36426,0.12445 0.62612,0.0399 0.97985,0.43247 0.98023,1.08787 1.1e-4,0.24564 -0.009,0.28953 -0.0984,0.47108 -0.1163,0.23626 -0.24167,0.35407 -0.37669,0.354 -0.0605,-3e-5 -0.22677,-0.0717 -0.45561,-0.1964 z m 3.25804,-1.78539 c -0.033,-0.033 -0.0601,-0.0853 -0.0601,-0.11607 0,-0.0868 0.11583,-0.21424 0.19469,-0.21424 0.0803,0 0.2257,0.15487 0.2257,0.24038 0,0.14488 -0.2444,0.20587 -0.36033,0.0899 z m -0.2041,-4.13142 c -0.24139,-0.1203 -0.29117,-0.21218 -0.29235,-0.53965 -8.2e-4,-0.25694 -0.008,-0.28656 -0.12762,-0.53588 -0.0697,-0.14514 -0.12663,-0.2826 -0.12663,-0.30545 0,-0.0228 0.0516,-0.0678 0.11461,-0.10002 0.15003,-0.0765 0.19211,-0.13102 0.18032,-0.23345 -0.009,-0.0769 -0.0233,-0.0861 -0.16939,-0.10696 -0.0878,-0.0125 -0.18918,-0.0378 -0.2252,-0.0562 -0.1284,-0.0655 -0.44085,-0.27859 -0.44085,-0.30075 0,-0.0554 0.0748,-0.0586 0.18647,-0.008 0.12104,0.0546 0.12126,0.0545 0.17756,-0.0149 0.0782,-0.0966 0.0699,-0.17648 -0.0342,-0.33022 -0.10895,-0.1608 -0.1105,-0.22085 -0.0141,-0.54503 0.13821,-0.4646 0.12494,-0.9268 -0.0331,-1.15241 -0.061,-0.087 -0.0523,-0.18992 0.0192,-0.22817 0.10326,-0.0553 0.18629,-0.0206 0.28943,0.12094 0.0542,0.0743 0.16071,0.20603 0.23677,0.29268 0.0945,0.10762 0.12552,0.16206 0.098,0.17177 -0.19095,0.0675 -0.2054,0.0776 -0.2054,0.14438 0,0.10358 0.0562,0.14186 0.20869,0.14198 0.156,1.3e-4 0.27102,0.0604 0.43233,0.22649 0.19499,0.20077 0.13477,0.31749 -0.16741,0.32453 -0.16923,0.004 -0.18929,0.0111 -0.19769,0.07 -0.007,0.0444 0.0167,0.0827 0.0711,0.11838 0.0443,0.029 0.1052,0.11046 0.13546,0.18103 0.0399,0.0931 0.0833,0.14013 0.15794,0.17133 0.10521,0.0439 0.16002,0.0995 0.12891,0.1306 -0.01,0.01 -0.0875,0.0285 -0.17314,0.042 -0.0857,0.0135 -0.16924,0.0382 -0.18574,0.0546 -0.0421,0.0421 0.12919,0.29115 0.41223,0.59934 0.29536,0.32163 0.3603,0.44403 0.36206,0.68253 8.1e-4,0.15551 -0.016,0.2169 -0.11124,0.39933 -0.0677,0.12947 -0.11261,0.25757 -0.11261,0.32069 0,0.16321 -0.0727,0.27466 -0.20274,0.31077 -0.16578,0.0461 -0.21959,0.0397 -0.39172,-0.046 z"
         id="path1774-1-8" />
    </g>
  </g>
</svg>
