<?xml version="1.0" encoding="UTF-8" standalone="no"?>
<svg
   xmlns:dc="http://purl.org/dc/elements/1.1/"
   xmlns:cc="http://creativecommons.org/ns#"
   xmlns:rdf="http://www.w3.org/1999/02/22-rdf-syntax-ns#"
   xmlns:svg="http://www.w3.org/2000/svg"
   xmlns="http://www.w3.org/2000/svg"
   xmlns:sodipodi="http://sodipodi.sourceforge.net/DTD/sodipodi-0.dtd"
   xmlns:inkscape="http://www.inkscape.org/namespaces/inkscape"
   width="210mm"
   height="297mm"
   viewBox="0 0 210 297"
   version="1.1"
   id="svg8"
   inkscape:version="1.0.1 (3bc2e813f5, 2020-09-07)"
   sodipodi:docname="WilsonForCutting_Full.svg">
  <defs
     id="defs2" />
  <sodipodi:namedview
     id="base"
     pagecolor="#ffffff"
     bordercolor="#666666"
     borderopacity="1.0"
     inkscape:pageopacity="0.0"
     inkscape:pageshadow="2"
     inkscape:zoom="1.6328077"
     inkscape:cx="517.35103"
     inkscape:cy="329.61294"
     inkscape:document-units="mm"
     inkscape:current-layer="layer1"
     inkscape:document-rotation="0"
     showgrid="false"
     inkscape:snap-others="true"
     inkscape:snap-grids="true"
     inkscape:snap-to-guides="true"
     inkscape:snap-nodes="false"
     inkscape:window-width="1920"
     inkscape:window-height="1017"
     inkscape:window-x="1912"
     inkscape:window-y="-8"
     inkscape:window-maximized="1" />
  <metadata
     id="metadata5">
    <rdf:RDF>
      <cc:Work
         rdf:about="">
        <dc:format>image/svg+xml</dc:format>
        <dc:type
           rdf:resource="http://purl.org/dc/dcmitype/StillImage" />
        <dc:title />
      </cc:Work>
    </rdf:RDF>
  </metadata>
  <g
     inkscape:groupmode="layer"
     id="layer1"
     inkscape:label="Logo">
    <path
       id="rect10-5-5"
       style="fill:#ff0000;fill-rule:evenodd;stroke:none;stroke-width:2.17325;stroke-miterlimit:4;stroke-dasharray:none;stroke-opacity:1"
       d="M 279.7207 96.980469 C 273.71059 96.980469 268.87109 103.35815 268.87109 111.2793 L 268.87109 483.0293 C 268.87109 490.95047 273.71059 497.32812 279.7207 497.32812 L 422.10742 497.32812 C 428.11755 497.32813 432.95703 490.95047 432.95703 483.0293 L 432.95703 111.2793 C 432.95703 103.35815 428.11755 96.980469 422.10742 96.980469 L 279.7207 96.980469 z M 350.91211 231.3418 L 350.91406 231.3418 A 65.811965 65.811965 0 0 1 404.76758 259.32617 L 382.73633 259.32617 C 382.81683 259.30452 382.97902 259.27841 382.99414 259.26367 C 383.11172 259.14612 382.90546 258.93545 382.50781 258.76953 C 382.22575 258.65162 382.06096 258.47492 381.91016 258.12305 C 381.79579 257.85633 381.56587 257.54906 381.39844 257.43945 C 381.19283 257.3046 381.10623 257.16 381.12891 256.99219 C 381.16065 256.76957 381.23734 256.74168 381.87695 256.72656 C 383.01905 256.69995 383.24674 256.25882 382.50977 255.5 C 381.90009 254.87225 381.46461 254.64503 380.875 254.64453 C 380.29874 254.64408 380.08594 254.49891 380.08594 254.10742 C 380.08594 253.85507 380.14158 253.81762 380.86328 253.5625 C 380.96714 253.5258 380.84897 253.31887 380.49219 252.91211 C 380.20472 252.58462 379.80251 252.08746 379.59766 251.80664 C 379.30527 251.40545 379.05653 251.23173 378.78516 251.25781 C 378.69483 251.26654 378.60142 251.29734 378.50391 251.34961 C 378.23405 251.49418 378.20109 251.88212 378.43164 252.21094 C 379.02918 253.06364 379.07901 254.81043 378.55664 256.56641 C 378.19263 257.79165 378.1976 258.01919 378.60938 258.62695 C 378.8044 258.91475 378.90701 259.13372 378.92969 259.32617 L 369.49414 259.32617 C 369.44501 259.26751 369.40139 259.2285 369.34961 259.16406 C 368.79031 258.46673 368.22402 258.06611 367.46094 257.82422 C 367.2263 257.7498 366.9867 257.59902 366.92773 257.48828 C 366.78714 257.22591 366.72407 254.57622 366.84766 254.12305 C 366.9912 253.59696 366.72968 253.39453 365.90234 253.39453 C 365.31807 253.39453 365.17457 253.44179 364.7168 253.79102 C 363.70112 254.5665 363.50911 254.34803 363.39648 252.2832 C 363.34924 251.42793 363.25875 250.59044 363.19336 250.42188 C 363.12797 250.25338 363.01756 249.66455 362.94727 249.11523 C 362.87659 248.56591 362.74463 247.78849 362.6543 247.38672 L 362.49023 246.65625 L 362.89062 246.26758 C 363.47097 245.70402 363.42519 245.44223 362.60938 244.62891 C 361.76382 243.78581 361.72962 243.51197 362.38477 242.92383 C 362.92785 242.43639 362.95102 242.19569 362.49805 241.76172 C 362.12161 241.401 362.05663 240.9729 362.32422 240.61914 C 362.5268 240.34834 362.5486 239.6164 362.35547 239.46484 C 362.08561 239.25311 361.15993 239.00412 359.88672 238.80078 L 358.60742 238.5957 L 358.39062 238.86328 C 358.23302 239.05835 358.19362 239.22472 358.24805 239.47266 C 358.36824 240.01941 358.3267 240.60026 358.10938 241.37695 C 357.93892 241.97529 357.90884 242.48618 357.92773 244.28906 L 357.94922 246.47461 L 357.44141 247.71289 C 356.89768 249.04064 356.59831 250.13632 356.5957 250.79883 C 356.59389 251.24907 356.48352 251.37818 355.96875 251.54297 C 355.76628 251.60779 355.49662 251.84752 355.30273 252.13477 C 354.8899 252.74728 354.75383 252.63312 354.6582 251.5918 C 354.60945 251.05782 354.50715 250.70169 354.33594 250.46094 C 353.98811 249.9724 352.11806 248.74023 351.72461 248.74023 C 351.38286 248.74023 351.05249 249.04123 350.76562 249.60938 C 350.40385 250.32566 349.23055 251.125 348.54102 251.125 C 348.25302 251.125 347.51586 250.85702 347.51367 250.75195 C 347.51329 250.73792 347.38373 250.36859 347.22461 249.93164 C 346.49728 247.93318 346.26372 247.19306 346.19531 246.6543 C 346.09447 245.86094 345.99184 245.70398 345.48047 245.56641 C 345.23771 245.50102 344.91971 245.34877 344.77344 245.23047 L 344.50781 245.01562 L 344.87695 243.93164 C 345.41145 242.36155 345.36701 241.96738 344.55664 241.00391 C 344.22049 240.60421 344.10938 240.37343 344.10938 240.07031 C 344.10938 239.58966 343.86664 239.39418 343.03711 239.20898 C 342.27039 239.03789 341.50277 239.22788 340.98438 239.7168 C 340.62203 240.05847 340.5918 240.13655 340.5918 240.76562 C 340.5918 241.913 340.04379 242.32977 339.20508 241.81836 C 339.00083 241.69363 338.75175 241.59202 338.65234 241.5918 C 338.26286 241.59089 337.01423 242.33489 336.32617 242.97852 C 335.66385 243.59809 334.68945 244.87593 334.68945 245.125 C 334.68945 245.18173 334.89508 245.44971 335.14453 245.7207 C 335.6593 246.27897 335.68473 246.42289 335.38086 247.01367 C 334.95623 247.83909 334.46619 248.39496 333.91211 248.67578 C 333.60756 248.8301 333.22905 249.11023 333.07031 249.29883 C 332.81931 249.59707 332.5332 250.47521 332.5332 250.95117 C 332.5332 251.1265 332.37311 251.18739 331.62109 251.28906 C 331.31367 251.33063 330.80714 251.54025 330.37109 251.80859 C 329.65714 252.24767 329.61376 252.25968 328.5957 252.25977 C 327.72524 252.26018 327.53249 252.22578 327.44141 252.0625 C 327.36884 251.93565 327.37123 251.79225 327.44531 251.6543 C 327.5073 251.53713 327.52998 251.17868 327.49219 250.85742 C 327.45477 250.53611 327.37455 249.37947 327.31445 248.28711 C 327.10836 244.53075 327.04525 243.99799 326.76367 243.7168 C 326.54767 243.50012 326.39145 243.46497 325.69141 243.46875 C 325.01336 243.47366 324.73358 243.53874 324.07617 243.84375 C 323.25896 244.22295 321.8318 245.14494 321.25391 245.66602 C 320.71109 246.15535 320.25107 247.38453 319.93359 249.19531 C 319.86292 249.60104 319.78036 250.04608 319.75391 250.18555 C 319.72102 250.35185 319.59787 250.46076 319.39453 250.50195 C 318.42206 250.6983 318.19074 250.95901 318.35742 251.67188 C 318.41071 251.9014 318.49005 252.65641 318.53125 253.34961 C 318.60231 254.53967 318.59308 254.62372 318.36328 254.85352 C 318.20465 255.01226 317.97702 255.0957 317.71094 255.0957 C 317.08747 255.0957 316.53817 255.4156 316.17383 255.99023 C 315.65634 256.80657 315.71869 257.15385 316.53125 258 L 317.21289 258.70898 L 317.19727 259.88281 C 317.18253 260.96084 317.21461 261.15066 317.5957 262.24609 C 318.30085 264.27277 318.55202 266.03034 318.79883 270.64453 C 318.96698 273.78952 318.97595 273.83786 319.44922 274.53125 C 319.91198 275.20968 319.90519 275.15734 319.9668 279.11719 L 320.00195 281.28906 L 320.41602 281.74805 C 320.64426 282.00048 320.86423 282.38216 320.9043 282.5957 C 320.94587 282.80905 320.96018 283.8727 320.9375 284.96094 L 320.90039 286.93945 L 320.40039 287.94336 L 319.90039 288.94531 L 320.03711 290.37891 C 320.19143 291.99922 320.13989 292.31588 319.59961 292.99805 C 319.02248 293.72655 318.96868 294.01712 319.24609 294.92969 L 319.48633 295.72266 L 319.20117 297.85742 C 318.90694 300.05881 318.74395 300.76614 318.2793 301.875 C 317.72442 303.19924 317.39621 304.91425 317.25977 307.18945 C 317.2352 307.59522 317.13506 308.54003 317.03906 309.28906 C 316.94268 310.03808 316.81595 311.10706 316.75586 311.66602 C 316.61371 312.99176 316.27081 314.91547 315.82422 316.89258 C 315.51883 318.24436 315.46508 318.71015 315.46289 320.01367 C 315.46062 321.40125 315.49048 321.63089 315.77734 322.45312 C 315.95143 322.95248 316.34507 323.7722 316.65234 324.27344 C 317.29611 325.32313 317.33299 325.6604 316.91406 326.73828 L 292.12695 326.73828 A 65.811965 65.811965 0 0 1 285.10156 297.1543 A 65.811965 65.811965 0 0 1 350.91211 231.3418 z M 360.04102 242.49609 C 360.3402 242.50532 360.64809 242.5866 360.83594 242.73438 C 361.20255 243.02298 361.24635 243.56726 360.91602 243.74414 C 360.61388 243.9053 359.39557 243.89166 359.22852 243.72461 C 359.02178 243.51787 359.06494 242.90067 359.30078 242.6875 C 359.45245 242.55011 359.74168 242.48702 360.04102 242.49609 z M 332.875 251.23633 C 332.93434 251.22839 333.00852 251.23053 333.09961 251.24414 C 333.22082 251.26217 333.37277 251.29884 333.5625 251.35156 C 334.16549 251.51906 334.46484 251.84994 334.46484 252.35156 C 334.46484 253.06335 333.87224 253.62109 333.11523 253.62109 C 332.62106 253.62109 332.42188 253.97241 332.42188 254.8457 C 332.42187 255.24168 332.36932 255.66459 332.30469 255.78516 L 332.30469 255.78711 C 332.14542 256.08282 331.86951 256.06332 331.81055 255.75 C 331.60279 254.64501 331.5775 254.58986 331.12891 254.35742 C 330.49897 254.03108 330.3629 253.76886 330.70117 253.52734 C 330.84706 253.42321 331.16026 253.17171 331.39648 252.96875 C 331.63278 252.76579 331.88566 252.59961 331.95898 252.59961 C 332.25073 252.59961 332.64844 252.04602 332.64844 251.64062 C 332.64844 251.38679 332.69698 251.2609 332.875 251.23633 z M 348.10938 261.91211 C 348.35043 261.90807 348.55036 261.95403 348.63086 262.05078 C 348.697 262.13046 348.78176 262.65471 348.82031 263.21484 C 348.85886 263.77497 348.99448 264.57728 349.12109 264.99805 C 349.37447 265.84085 349.31471 266.26209 348.86328 266.83594 L 348.86328 266.83789 C 348.49311 267.30852 347.66016 267.15836 347.0625 266.51172 C 346.79075 266.21775 346.7762 266.13211 346.74219 264.53711 C 346.70057 262.61639 346.77562 262.31082 347.3418 262.07422 C 347.58531 261.97104 347.86824 261.91627 348.10938 261.91211 z M 365.52148 262.0293 C 365.73454 262.06881 365.9891 262.26752 366.32812 262.63867 C 367.01717 263.39246 367.3838 264.11284 367.29688 264.54492 C 367.26248 264.71688 367.29267 264.93027 367.36523 265.01758 C 367.69216 265.41197 367.7269 265.91913 367.52734 267.36914 C 367.33988 268.74115 367.34089 268.83394 367.53516 269.47461 C 367.73358 270.1231 367.73245 270.16821 367.52344 270.87695 L 367.51953 270.87695 C 367.39348 271.30588 367.23663 271.61769 367.14062 271.63281 C 367.05037 271.64603 366.67433 271.40613 366.30469 271.09961 C 365.47039 270.40773 364.56894 269.92328 363.69727 269.69727 C 363.32952 269.60164 362.99186 269.48229 362.94727 269.43164 C 362.90305 269.38122 362.78451 268.91646 362.68359 268.39844 C 362.58272 267.88038 362.36804 267.19475 362.20703 266.875 C 361.84023 266.1445 361.8719 265.86357 362.33398 265.74414 C 362.99514 265.57376 363.67828 264.82838 364.31445 263.58008 C 364.64032 262.94062 364.98483 262.32798 365.08008 262.21875 C 365.15718 262.13057 365.23603 262.07169 365.32031 262.04297 C 365.38343 262.0218 365.45043 262.01607 365.52148 262.0293 z M 375.48633 263.63672 L 379.68164 263.63672 C 379.76366 263.82921 379.77409 263.896 379.88672 264.13086 C 380.3389 265.07317 380.36604 265.18515 380.36914 266.15625 C 380.3736 267.39394 380.56032 267.74062 381.47266 268.19531 C 382.12323 268.51922 382.32652 268.54338 382.95312 268.36914 C 383.4448 268.23267 383.7207 267.81215 383.7207 267.19531 C 383.7207 266.95673 383.89061 266.47176 384.14648 265.98242 C 384.5063 265.29295 384.56951 265.06237 384.56641 264.47461 C 384.56414 264.15855 384.51032 263.89633 384.42188 263.63672 L 407.55078 263.63672 A 65.811965 65.811965 0 0 1 415.35938 283.80859 L 383.46094 283.80859 C 383.55051 283.71789 383.60742 283.60412 383.60742 283.4707 C 383.60742 283.14751 383.0574 282.56055 382.75391 282.56055 C 382.45585 282.56055 382.01758 283.04303 382.01758 283.37109 C 382.01758 283.4868 382.11822 283.68376 382.24219 283.80859 L 380.45117 283.80859 C 380.448 283.67411 380.44361 283.54043 380.45117 283.39258 C 380.48632 282.53859 380.47613 282.50968 380.18359 282.36719 C 379.5828 282.07439 379.41726 282.3114 379.32617 283.58789 C 379.31831 283.67626 379.31823 283.73467 379.31445 283.80859 L 370.10742 283.80859 L 370.10742 284.12305 C 369.98459 284.10698 369.87107 284.07863 369.74219 284.07031 C 368.84376 284.01304 368.77195 283.98826 368.36523 283.59961 C 367.96385 283.21603 367.88091 283.18655 367.08789 283.14648 C 366.82159 283.13316 366.60417 283.12828 366.42578 283.13281 C 365.89037 283.14691 365.70442 283.25408 365.58008 283.52734 C 365.36918 283.99059 365.29646 284.96065 365.43555 285.47656 C 365.58639 286.03604 366.31215 286.73379 366.99023 286.97266 C 367.23318 287.05838 367.54848 287.2344 367.68945 287.36328 C 367.92114 287.57471 367.93805 287.66406 367.87305 288.29883 C 367.80313 288.98315 367.81055 289.01252 368.18359 289.4082 C 368.39426 289.63179 369.18066 290.1504 369.92969 290.55859 C 369.99961 290.59662 370.0409 290.61096 370.10742 290.64648 L 370.10742 293.37891 L 380.62695 293.37891 C 380.61561 293.39724 380.6129 293.4135 380.60156 293.43164 C 380.32161 293.91399 379.83065 294.94631 379.50977 295.72656 C 378.58711 297.9691 378.4292 298.16288 375.8418 300.24805 C 375.12429 300.82632 374.53919 301.20604 374.22852 301.29297 C 373.60814 301.46645 371.09564 301.34528 370.21875 301.09961 C 368.82879 300.71051 367.73862 299.88792 366.27148 298.11914 C 362.82149 293.96011 362.80335 293.92851 363.06641 292.83203 C 363.19748 292.28582 363.19674 292.1055 363.06445 291.6582 C 362.75064 290.59644 362.78521 289.72343 363.1875 288.55859 C 363.84688 286.64946 363.6852 286.1948 362.04492 285.34766 C 360.99769 284.80676 359.51941 283.76144 358.93555 283.14648 C 358.62525 282.8197 358.61222 282.7658 358.68555 282.11719 C 358.80781 281.03662 358.69701 280.91856 357.08398 280.45117 C 356.53875 280.29314 355.79567 280.00721 355.43359 279.81445 C 354.22044 279.16787 352.85156 277.59244 352.85156 276.84375 C 352.85156 276.46977 353.23563 275.97852 353.5293 275.97852 C 353.631 275.97852 353.95677 276.13285 354.25195 276.32031 C 354.58228 276.53008 354.93937 276.66016 355.18164 276.66016 C 355.64123 276.66016 355.66722 276.55168 355.38867 275.76758 C 355.17985 275.17968 355.24529 274.84662 355.8457 273.41992 C 356.45712 271.96699 356.4463 270.84186 355.80469 269.11328 C 355.43977 268.12956 355.51669 267.08308 356.02734 266.125 C 356.62175 265.00978 357.57683 264.29296 358.0625 264.5957 C 358.2949 264.74064 358.5064 265.36321 358.70898 266.49609 C 358.89316 267.52628 359.06514 267.84444 359.61328 268.16797 C 360.03394 268.41625 360.10844 268.70797 359.82422 268.99219 C 359.58029 269.23597 359.48942 269.21786 359.16211 268.86523 C 358.91757 268.6018 358.84125 268.57707 358.60352 268.68555 C 358.23184 268.85491 357.73242 269.88497 357.73242 270.48047 C 357.73242 271.29189 358.20012 271.48267 359.37695 271.15234 C 359.50172 271.11727 359.70201 271.15916 359.82031 271.24609 C 360.0229 271.39481 360.02744 271.45914 359.89062 272.35742 C 359.72875 273.42043 359.65746 273.60212 359.19141 274.13867 C 359.01339 274.34372 358.86719 274.6123 358.86719 274.73438 C 358.86719 275.20242 359.36846 276.76231 359.85156 277.79492 C 360.12898 278.38791 360.42952 279.14722 360.51758 279.48242 C 360.7242 280.26803 360.84703 280.40625 361.35156 280.40625 C 361.83281 280.40625 361.97836 280.31559 363.34961 279.16406 C 365.53323 277.33033 366.39762 276.49258 366.89062 275.73047 C 367.32085 275.06535 367.43692 274.95703 367.72266 274.95703 C 368.16626 274.95703 368.39719 275.33116 368.47656 276.16992 C 368.51096 276.53371 368.61065 276.94206 368.69531 277.07812 C 368.78013 277.21415 369.2961 277.6363 369.84375 278.01562 C 370.3914 278.39493 371.5304 279.32142 372.37305 280.07617 C 373.89918 281.44305 375.55326 282.70858 376.07227 282.90625 C 376.42036 283.03861 376.83673 282.8571 377.03516 282.48633 C 377.15761 282.26077 377.15938 282.08944 377.04297 281.5625 C 376.72878 280.14227 376.7303 280.13459 377.25195 279.33398 C 377.81087 278.4761 378.23 277.23713 378.4375 275.83984 C 378.51876 275.29422 378.6499 274.77027 378.72852 274.67578 C 379.00703 274.34028 379.36073 274.47886 379.92773 275.14258 C 380.22741 275.49336 380.71906 275.93042 381.01953 276.11523 C 381.31993 276.30008 381.84255 276.762 382.17969 277.14062 C 382.61263 277.62629 382.84617 277.8077 382.97656 277.75781 C 383.32575 277.62375 383.28555 277.353 382.75781 276.24609 C 382.19349 275.06249 381.67969 273.64497 381.67969 273.27344 C 381.67973 272.83271 381.80733 272.6875 382.19727 272.6875 C 382.75165 272.6875 383.12641 272.47629 383.26172 272.08789 C 383.54386 271.27867 383.21514 270.47106 382.56445 270.37695 C 382.35862 270.34709 381.81632 270.27097 381.35938 270.20898 C 379.73335 269.98832 378.71699 269.19135 378.31836 267.82227 C 377.90453 266.40108 377.67683 266.13162 376.63281 265.82812 C 376.29024 265.72835 375.96376 265.55885 375.9082 265.45117 C 375.85264 265.34326 375.78011 264.93185 375.74609 264.53711 C 375.70905 264.10592 375.64469 263.85026 375.48633 263.63672 z M 347.82422 268.26172 C 347.91576 268.26172 348.34836 268.62795 348.78516 269.07617 C 349.50417 269.81138 349.57257 269.92616 349.51172 270.24023 C 349.24235 271.63011 349.27064 271.72428 350.14844 272.39453 C 350.76265 272.86351 351.03516 273.38827 351.03516 274.09961 C 351.03516 274.68574 350.82882 275.25807 350.39062 275.89258 C 350.18086 276.19627 350.09986 276.45382 350.10742 276.80078 C 350.11846 277.35021 350.08366 277.4203 349.62891 277.76953 C 349.44855 277.90786 349.23801 278.02148 349.16016 278.02148 C 349.08211 278.02148 348.71162 277.69248 348.33594 277.29102 C 347.48868 276.38533 346.74914 275.81574 346.1875 275.63281 C 345.43946 275.38898 345.39454 275.03336 346.01562 274.2832 C 346.599 273.57865 346.75919 273.30796 347.04492 272.54102 C 347.30533 271.84221 347.51888 269.92271 347.42969 269.08203 C 347.37617 268.57546 347.52715 268.26172 347.82422 268.26172 z M 338.48242 276.52148 L 339.56445 276.57812 C 340.92059 276.64876 341.39596 276.79306 341.96875 277.31055 C 342.80282 278.06404 343.00037 278.8809 342.53711 279.66602 C 342.15802 280.30888 342.22348 280.69829 342.85156 281.52344 C 343.46498 282.32927 343.65625 282.83573 343.65625 283.6543 C 343.65625 284.69318 343.07801 285.34772 341.84766 285.69922 C 341.50039 285.79848 340.63845 286.1795 339.93164 286.54688 C 338.79752 287.13604 338.56884 287.21484 337.99023 287.21484 C 337.21486 287.21484 336.85693 287.43632 335.74023 288.60742 C 335.24175 289.13036 335.03125 289.43861 335.03125 289.64648 C 335.03125 289.80926 335.21375 290.41184 335.4375 290.98438 C 335.66121 291.55692 335.89669 292.32233 335.96094 292.68555 C 336.12085 293.59351 336.42245 293.98264 337.34375 294.46289 C 337.95641 294.78236 338.28708 294.87809 338.87695 294.91211 C 339.57087 294.95142 339.65441 294.93152 339.9375 294.64844 C 340.3136 294.2723 340.56202 293.61977 341.15234 291.4668 C 341.40364 290.55034 341.72426 289.56944 341.86523 289.28711 C 342.35189 288.31267 344.30371 286.68045 345.31836 286.40039 C 345.89035 286.24245 346.27234 286.53474 346.47266 287.2832 C 346.68922 288.09315 346.58608 292.41212 346.33398 293.10156 C 346.12309 293.6788 346.10304 294.17175 346.27539 294.49414 C 346.34255 294.61962 346.72595 294.86892 347.12695 295.04883 C 347.52773 295.22846 347.85768 295.41766 347.86523 295.4668 C 347.87015 295.51624 347.89139 296.48393 347.91406 297.61719 C 347.95148 299.56432 347.94237 299.68779 347.72656 299.88281 C 347.50606 300.08238 347.48714 300.08344 347.13867 299.88086 C 345.6577 299.01909 345.54064 299.06339 345.23828 300.60156 C 345.16243 300.98703 344.99122 301.46526 344.85742 301.66406 C 344.64959 301.97364 344.54131 302.02785 344.10742 302.04297 C 343.82857 302.0528 343.09102 301.96602 342.4668 301.84961 C 341.66588 301.70032 340.86346 301.64478 339.74219 301.65234 C 337.81769 301.66916 337.20409 301.53067 335.0332 300.60156 C 332.40341 299.47605 332.00438 299.2758 331.51758 298.83594 C 330.67886 298.07826 330.40918 297.30222 330.26367 295.23047 C 330.17277 293.93474 330.14337 293.82516 329.6543 292.8418 L 329.14258 291.81055 L 329.17969 288.74609 C 329.22323 285.25191 329.20777 285.33402 330.30273 283.18359 C 330.65155 282.49855 330.99214 281.68454 331.06055 281.375 C 331.21014 280.69696 331.30728 280.57114 331.9043 280.26953 C 332.15817 280.1413 332.77405 279.76789 333.27344 279.43945 C 334.42162 278.6845 336.12806 277.70455 337.45312 277.03906 L 338.48242 276.52148 z M 346.39453 278.94531 L 346.39648 278.94531 C 346.54581 278.91549 346.7899 278.93076 347.27148 278.96289 C 347.81048 278.99917 348.5845 279.1324 348.99023 279.25977 C 349.39593 279.38714 350.12003 279.55042 350.59961 279.62109 C 351.10331 279.69476 351.49333 279.81025 351.52734 279.89453 C 351.64413 280.19834 351.40779 281.34813 351.19727 281.50195 C 350.94226 281.68673 350.55296 281.68173 349.95508 281.48633 C 349.70536 281.40453 349.16788 281.23441 348.75977 281.10742 C 347.68362 280.7725 346.27378 280.0644 346.07422 279.75977 C 345.91775 279.52204 345.9204 279.46826 346.09766 279.19727 C 346.19366 279.05039 346.24675 278.97555 346.39453 278.94531 z M 383.125 293.37891 L 416.61719 293.37891 A 65.811965 65.811965 0 0 1 416.72656 297.1543 A 65.811965 65.811965 0 0 1 350.91406 362.9668 A 65.811965 65.811965 0 0 1 304.17578 343.48633 L 328.98828 343.48633 L 328.98828 341.04102 C 329.27364 341.20671 329.53424 341.37906 329.69336 341.52344 C 329.99194 341.79417 330.53546 342.11426 331 342.29492 C 331.43691 342.46496 332.71236 343.00179 333.83594 343.48633 C 335.54655 344.22402 335.90394 344.41915 336.0332 344.6875 C 336.14734 344.92126 336.15768 345.07621 336.07227 345.26367 C 335.96844 345.4912 335.87577 345.52056 335.23828 345.51758 C 334.84325 345.51531 334.11982 345.6041 333.63086 345.71484 C 333.01975 345.85317 332.55919 345.89156 332.15625 345.83789 C 331.09783 345.69729 330.92324 345.70915 330.78906 345.92383 C 330.6821 346.09455 330.72171 346.17734 331.03125 346.43359 C 331.46816 346.79556 331.48393 346.92015 331.14453 347.37891 C 330.89395 347.72254 330.89117 347.72521 331.11719 347.89453 C 331.53981 348.21129 332.4215 348.61775 333.30273 348.90234 C 333.78546 349.05832 334.59049 349.41569 335.08984 349.69727 C 337.51468 351.06379 338.05938 351.21802 340.93359 351.33594 C 342.25684 351.39036 343.50875 351.50468 344.04688 351.62109 C 344.54184 351.72843 345.48665 351.88081 346.14648 351.96094 L 346.14453 351.96289 C 346.80432 352.04302 347.93832 352.11158 348.66406 352.11914 C 350.22588 352.13373 354.63867 351.67177 356.81836 351.26562 C 358.96407 350.86628 359.37468 350.80541 361.30273 350.60547 C 364.58529 350.26516 366.81135 349.63345 369.70117 348.2207 C 371.57442 347.30489 374.06423 345.84544 375.06055 345.07812 C 375.86252 344.4604 376.39557 343.79527 377.86523 341.57812 C 379.53504 339.05918 381.70959 334.9583 382.98242 331.92969 C 383.2841 331.21188 383.74394 330.29241 384.00586 329.88672 C 384.76124 328.71597 384.78579 328.6459 384.80469 327.61719 C 384.81225 327.08662 384.83228 326.55945 384.83984 326.44531 C 384.84891 326.33113 385.16994 325.93806 385.55273 325.57031 L 386.24805 324.90039 L 386.14648 324.30078 C 385.92825 322.97685 386.17195 318.53506 386.54688 317.00586 C 386.66922 316.50647 387.13637 315.07651 387.58398 313.82812 C 388.77945 310.4961 388.85237 310.21988 388.7832 309.28906 C 388.70508 308.23665 387.92332 305.16574 387.49805 304.23828 C 387.31206 303.83259 386.84491 303.08285 386.45898 302.57227 C 385.55999 301.38319 385.41788 301.02603 385.29883 299.65625 C 385.24516 299.03736 385.09921 298.12625 384.9707 297.63086 C 384.60912 296.23604 383.79248 294.32402 383.21289 293.51172 C 383.17736 293.46149 383.15902 293.42634 383.125 293.37891 z M 356.25586 295.61914 C 356.68892 295.61506 356.78768 295.72628 357.1543 296.61523 C 357.34093 297.0676 357.59188 297.57677 357.71094 297.74609 C 358.16849 298.39779 358.31096 298.78142 358.18359 299.01953 C 357.99197 299.37769 357.59974 299.2868 356.75195 298.69141 C 355.81765 298.03532 354.07404 296.42275 354.12695 296.26367 C 354.17125 296.13078 355.84918 295.62225 356.25586 295.61914 z M 351.96094 303.35547 C 352.06692 303.33245 352.21111 303.34621 352.46094 303.38477 C 352.76848 303.43163 353.5066 303.4789 354.09961 303.49023 C 355.4842 303.51623 356.14157 303.78732 356.9375 304.6582 C 357.83922 305.64492 358.06786 306.93641 357.73828 309.17578 C 357.67403 309.6127 357.62039 310.41947 357.61914 310.96875 C 357.61646 312.13969 357.49367 312.44487 356.78516 313.02539 C 356.24918 313.46495 355.91408 313.53397 355.68164 313.25391 C 355.36703 312.875 354.9302 312.75676 353.83984 312.75977 C 353.10114 312.76166 352.62394 312.7048 352.32422 312.58008 C 351.77982 312.3535 350.97512 311.58732 350.67578 311.00781 C 350.37342 310.4225 350.13019 309.22961 350.12891 308.32422 C 350.12755 307.50289 350.22172 307.31124 351.00586 306.54883 L 351.48828 306.08008 L 351.48828 304.94531 C 351.48828 304.01553 351.52599 303.76407 351.69531 303.55469 C 351.78753 303.44073 351.85473 303.3789 351.96094 303.35547 z M 370.15234 322.50977 C 370.46502 322.50977 371.01018 322.95821 371.00977 323.21484 C 371.00958 323.29573 370.82978 323.71508 370.61133 324.14844 C 370.20994 324.94596 370.07735 325.81782 370.33398 325.97656 C 370.40001 326.01738 370.65586 325.918 370.90039 325.75586 C 371.42004 325.4123 371.49942 325.39981 371.73828 325.63867 C 372.03804 325.93888 371.94879 326.34006 371.46289 326.86719 C 370.82842 327.55552 369.83844 328.05584 368.88672 328.17188 C 368.46239 328.22403 368.05089 328.24313 367.97266 328.21289 C 367.66897 328.09932 367.26367 328.29705 367.26367 328.55859 C 367.26367 329.20486 367.96852 329.62439 368.63281 329.37305 C 368.84711 329.29216 369.26581 329.13172 369.5625 329.01758 C 370.18775 328.77709 370.47613 328.87786 370.5332 329.35352 C 370.56503 329.61873 370.39112 329.76416 368.71875 330.86914 C 366.3443 332.43798 364.45007 333.40391 363.17773 333.69531 C 362.35701 333.88164 361.77411 333.91697 359.26367 333.91992 C 357.45305 333.92219 356.09224 333.97261 355.74414 334.05273 C 354.80852 334.26855 347.67851 334.32973 346.4375 334.13281 C 344.23774 333.78396 343.52967 333.74524 341.99609 333.88281 C 340.21737 334.04261 339.85516 333.96643 339.07227 333.27734 C 338.7795 333.01962 338.14688 332.59918 337.66602 332.3418 C 336.90153 331.93217 336.75575 331.80085 336.50781 331.30664 C 336.15624 330.60629 335.83297 330.46494 335.04883 330.66602 C 334.35865 330.84278 333.97574 330.75091 333.61328 330.32031 C 333.2701 329.9125 333.24634 329.4021 333.55664 329.0918 C 333.87828 328.76978 334.27952 328.80116 334.47266 329.16211 C 334.68261 329.55235 334.9933 329.65894 335.60547 329.54102 C 336.60867 329.34713 338.65188 329.42199 340.35547 329.7168 C 341.25428 329.87214 342.36114 330 342.81445 330 C 343.26777 330 344.03812 330.07619 344.52734 330.16992 C 345.01664 330.26365 345.98833 330.34176 346.6875 330.3418 C 348.07474 330.3418 348.93262 330.47902 349.58398 330.80859 C 350.15424 331.09724 350.25127 331.08546 351.23047 330.60156 L 352.08203 330.17969 L 354.08398 330.10352 C 356.08498 330.02585 356.93813 329.88865 358.23047 329.43945 C 359.03638 329.15939 359.67528 329.14445 360.60742 329.38672 C 361.82201 329.70246 362.72461 329.42478 362.72461 328.73438 C 362.72461 328.36769 362.37425 327.95703 362.06055 327.95703 C 361.94486 327.95703 361.26802 328.10891 360.55664 328.29297 C 359.84522 328.47722 358.67484 328.71077 357.95703 328.81055 C 356.34306 329.03467 349.16098 329.24398 348.84766 329.07617 C 348.70025 328.99518 348.65115 328.86317 348.67383 328.60352 C 348.70297 328.30202 348.79272 328.20075 349.21875 327.99023 C 349.78523 327.71062 352.95722 327.04405 355.06445 326.76172 C 356.46019 326.57539 363.49953 326.3439 364.46875 326.45312 C 364.95389 326.50778 365.00686 326.48303 365.58203 325.94531 C 365.9141 325.6349 366.67066 325.06085 367.26367 324.66797 C 367.85664 324.27516 368.6824 323.62923 369.09766 323.23242 C 369.63537 322.71916 369.9388 322.50977 370.15234 322.50977 z "
       transform="scale(0.26458333)" />
    <path
       id="rect10-5-5-0"
       style="fill:#ff0000;fill-rule:evenodd;stroke:none;stroke-width:2.17325;stroke-miterlimit:4;stroke-dasharray:none;stroke-opacity:1"
       inkscape:transform-center-x="2.916755"
       inkscape:transform-center-y="-23.496082"
       d="M 474.49219 96.980469 C 468.48206 96.980469 463.64258 103.35815 463.64258 111.2793 L 463.64258 483.0293 C 463.64258 490.95047 468.48206 497.32812 474.49219 497.32812 L 616.87891 497.32812 C 622.889 497.32813 627.72852 490.95047 627.72852 483.0293 L 627.72852 111.2793 C 627.72852 103.35815 622.889 96.980469 616.87891 96.980469 L 474.49219 96.980469 z M 571.62109 251.7793 C 571.65322 251.83198 571.67321 251.87704 571.71289 251.93555 C 572.10634 252.51661 572.13736 252.81849 571.8418 253.18359 C 571.62905 253.44601 571.62935 253.44656 571.17188 253.24023 C 570.74951 253.04986 570.4668 253.06405 570.4668 253.27344 C 570.4668 253.35718 571.64752 254.1626 572.13281 254.41016 C 572.26895 254.4797 572.65215 254.5758 572.98438 254.62305 C 573.53649 254.70188 573.58903 254.7367 573.62305 255.02734 C 573.66761 255.41448 573.50845 255.62102 572.94141 255.91016 C 572.70326 256.03194 572.50977 256.20289 572.50977 256.28906 C 572.50977 256.37542 572.72485 256.8948 572.98828 257.44336 C 573.44046 258.38567 573.4676 258.49765 573.4707 259.46875 C 573.4707 259.74076 573.48709 259.95386 573.50977 260.15039 L 571.06445 260.15039 C 570.79036 259.56942 570.46445 259.35036 569.73633 259.13867 C 569.39371 259.03901 569.06728 258.86944 569.01172 258.76172 C 568.95616 258.65381 568.88363 258.24241 568.84961 257.84766 C 568.78037 257.04558 568.64771 256.84352 567.9082 256.41016 C 567.56011 256.20614 567.28465 255.89703 566.93164 255.3125 C 566.29048 254.25036 566.05151 254.08641 564.88477 253.91406 C 563.73118 253.74371 563.23748 253.45007 562.45508 252.47461 C 562.23065 252.19477 562.00058 251.97446 561.76172 251.78125 L 571.62109 251.7793 z M 575.22461 251.7832 L 597.25977 251.7832 A 65.811965 65.811965 0 0 1 602.42969 260.15039 L 576.90625 260.15039 C 576.97655 259.90213 577.08137 259.61395 577.24805 259.29492 C 577.6079 258.60543 577.67095 258.37488 577.66797 257.78711 C 577.66135 256.8857 577.41515 256.42264 576.29883 255.20703 C 575.22907 254.04222 574.58307 253.10052 574.74219 252.94141 C 574.80455 252.87942 575.11945 252.7854 575.44336 252.73438 C 575.76696 252.68335 576.05986 252.61397 576.09766 252.57617 C 576.21524 252.45862 576.00897 252.24795 575.61133 252.08203 C 575.44873 252.01404 575.32892 251.91261 575.22461 251.7832 z M 561.25781 275.05859 L 567.47266 275.05859 C 568.23952 275.65692 568.88501 276.10757 569.17188 276.2168 C 569.51993 276.34916 569.93634 276.16765 570.13477 275.79688 C 570.23757 275.60763 570.23569 275.41357 570.16992 275.05859 L 576.3457 275.05859 L 576.3457 275.49023 L 608.09766 275.49023 A 65.811965 65.811965 0 0 1 609.80273 288.85156 L 577.34766 288.85156 C 577.00523 288.02554 576.62778 287.26119 576.31445 286.82227 C 575.62987 285.86292 575.46094 285.43555 575.46094 284.66797 C 575.46098 283.84108 575.68254 283.33943 576.37109 282.61133 C 576.68158 282.28289 576.93585 281.94683 576.93555 281.86523 C 576.93464 281.52685 576.44674 280.96225 575.5957 280.31445 C 573.91366 279.0339 573.48773 278.28023 573.55273 276.70312 C 573.58788 275.84914 573.57964 275.82018 573.28711 275.67773 C 572.68628 275.38493 572.51882 275.62194 572.42773 276.89844 C 572.37255 277.67398 572.40026 277.82706 572.71094 278.54297 C 573.08507 279.40576 573.30469 280.84554 573.30469 282.42578 C 573.30469 283.43452 573.53482 284.3479 573.93945 284.94336 C 574.0895 285.16409 574.21094 285.4626 574.21094 285.60547 C 574.21094 285.74848 573.98123 286.2599 573.70117 286.74219 C 573.44182 287.18905 573.01002 288.09837 572.69141 288.85156 L 557.27539 288.85156 C 556.97703 288.47024 556.68577 288.0977 556.51758 287.84375 L 556.51758 281.12305 C 556.67783 280.51888 556.68766 280.09869 556.51758 279.75195 L 556.51758 278.50781 L 558.5 278.50781 C 558.51247 278.60514 558.51443 278.70973 558.53711 278.78906 C 558.68795 279.34853 559.41371 280.04629 560.0918 280.28516 C 560.33474 280.37088 560.65004 280.5469 560.79102 280.67578 C 561.0227 280.88721 561.03962 280.97655 560.97461 281.61133 C 560.90537 282.29564 560.91407 282.32503 561.28711 282.7207 C 561.49778 282.94429 562.28418 283.46291 563.0332 283.87109 C 563.89819 284.3424 564.52524 284.61317 564.75391 284.61328 C 565.26426 284.61354 565.73814 284.16834 566.17773 283.27539 C 566.51676 282.58921 566.5512 282.42255 566.55078 281.49414 C 566.54935 279.01704 565.21214 277.53362 562.8457 277.38281 C 561.94727 277.32556 561.87546 277.30076 561.46875 276.91211 C 561.38598 276.83293 561.32244 276.77684 561.25781 276.72461 L 561.25781 275.05859 z M 575.85547 275.87305 C 575.55742 275.87305 575.11914 276.35553 575.11914 276.68359 C 575.11914 276.7999 575.22098 276.99832 575.3457 277.12305 C 575.7839 277.56126 576.70898 277.33077 576.70898 276.7832 C 576.70895 276.46 576.15896 275.87305 575.85547 275.87305 z M 508.72656 311.26367 C 508.62149 311.89429 508.56394 312.45755 508.5625 313.32227 C 508.56023 314.70984 508.59009 314.93948 508.87695 315.76172 C 509.05104 316.26107 509.44468 317.08079 509.75195 317.58203 C 510.42376 318.67639 510.44881 318.97593 509.9707 320.16992 C 509.56781 321.17516 509.54454 321.72501 509.87109 322.46289 C 510.0061 322.76877 510.18033 323.55546 510.26953 324.26367 C 510.40095 325.30493 510.50568 325.67899 510.87305 326.43164 C 511.33559 327.37905 511.83443 327.94718 512.54102 328.36523 L 512.54102 329.68164 C 512.46165 329.65329 512.32427 329.58556 512.26758 329.57422 C 512.11413 329.54965 512.026 329.59276 511.92773 329.69141 C 511.69567 329.92286 511.77445 330.17026 512.20898 330.58008 C 512.66238 331.00762 514.02726 332.69539 514.60742 333.54688 C 514.80623 333.83862 515.10279 334.18286 515.26758 334.3125 C 515.7173 334.66577 516.55859 334.58664 516.55859 334.18945 C 516.55859 334.14111 516.17368 333.67866 515.70312 333.16211 C 515.03577 332.42926 514.80825 332.08896 514.66992 331.61523 C 514.64724 331.53813 514.60836 331.46981 514.57812 331.39648 L 514.74805 331.39648 L 514.74805 330.0293 L 515.15039 330.0293 C 515.17231 330.12341 515.19141 330.23099 515.19141 330.33984 L 515.19141 330.75977 L 516.01367 330.88867 C 516.67377 330.99068 516.88865 331.07571 517.09766 331.31836 C 517.34295 331.60167 517.35445 331.70221 517.32422 332.94141 C 517.28775 334.39312 517.40856 334.78344 518.04492 335.25781 C 518.53777 335.62511 518.58651 335.43518 518.30078 334.23828 C 517.97196 332.86866 517.96805 332.72303 518.26172 332.34961 C 518.62157 331.89236 518.97343 331.95596 519.38672 332.55664 C 519.83486 333.208 520.25407 333.51067 521.375 333.98633 C 521.88928 334.20456 522.50383 334.57169 522.79297 334.83398 C 522.9279 334.95629 523.12327 335.08779 523.32812 335.21289 L 523.32812 342.5293 L 503.75195 342.5293 A 65.811965 65.811965 0 0 1 481.57031 311.26562 L 508.72656 311.26367 z "
       transform="scale(0.26458333)" />
  </g>
</svg>
